<?xml version="1.0" encoding="utf-8"?>
<!-- Generator: Adobe Illustrator 25.4.1, SVG Export Plug-In . SVG Version: 6.00 Build 0)  -->
<svg version="1.1" id="레이어_1" xmlns="http://www.w3.org/2000/svg" xmlns:xlink="http://www.w3.org/1999/xlink" x="0px"
	 y="0px" viewBox="0 0 198.43 198.43" style="enable-background:new 0 0 198.43 198.43;" xml:space="preserve">
<g>
	<g>
		<path d="M70.05,19.54L93.42,30.6c4.08,1.8,6.95,2.17,11.21,0.25l36.17-16.43c3.48-1.2,5.13-5.03,3.49-8.33
			c-1.56-3.14-5.43-4.14-8.48-2.4l-33.03,21.21c-0.89,0.5-1.43,0.79-2.09,0.94c-1.61,0.36-3.66,0.28-5.61-1.33L77.07,10.03
			c-2.48-2.34-6.41-1.93-8.6,0.68C66.41,13.29,66.8,17.72,70.05,19.54z"/>
		<path d="M182.64,99.99c-1.92,1.41-3.8,2.81-5.66,4.2c-2.58,1.91-5.18,3.8-8,5.71c-2.28,1.54-4.35,2.88-6.17,4.02
			c-5.46,3.42-8.7,5.07-8.7,5.07c-0.59,0.36-1.25,0.68-1.94,0.99c-0.22,0.09-0.44,0.17-0.67,0.26c-0.51,0.2-1.03,0.38-1.58,0.54
			c-0.27,0.08-0.53,0.15-0.8,0.22c-0.58,0.14-1.16,0.26-1.76,0.36c-0.24,0.04-0.47,0.09-0.71,0.12c-0.83,0.11-1.68,0.17-2.52,0.18
			c-0.02,0-0.04,0-0.06,0c-0.63,0-1.25-0.04-1.87-0.11c-0.17-0.02-0.34-0.05-0.51-0.07c-0.49-0.07-0.96-0.16-1.43-0.27
			c-0.18-0.04-0.36-0.08-0.53-0.13c-0.61-0.17-1.21-0.38-1.77-0.64c-0.95-0.44-1.78-0.96-2.53-1.54c-0.74-0.58-1.39-1.21-1.95-1.87
			c-0.56-0.66-1.04-1.35-1.45-2.04c-0.2-0.34-0.39-0.69-0.56-1.03c-0.51-1.02-0.87-2.01-1.13-2.88c-0.17-0.58-0.3-1.1-0.38-1.54
			c-0.04-0.22-0.08-0.42-0.11-0.6c-0.06-0.35-0.09-0.61-0.1-0.74c-0.01-0.07-0.01-0.1-0.01-0.1s-0.06-0.45-0.16-1.29
			c-0.05-0.42-0.11-0.94-0.18-1.55c-0.03-0.31-0.07-0.63-0.11-0.98c-0.08-0.7-0.16-1.49-0.25-2.36c-0.09-0.87-0.18-1.82-0.27-2.84
			c-0.24-2.56-0.49-5.58-0.71-8.95c-0.44-6.53-0.76-12.99-0.88-19.48c-0.04-2.21,0.32-4.1,0.89-5.69c0.28-0.8,0.62-1.52,0.98-2.16
			c0.18-0.32,0.37-0.63,0.56-0.92c0.76-1.15,1.58-2.03,2.25-2.64c0.84-0.77,1.45-1.13,1.45-1.13c0.58-0.38,1.2-0.71,1.83-1.01
			c0.2-0.09,0.41-0.17,0.62-0.25c0.45-0.19,0.9-0.36,1.36-0.5c0.25-0.08,0.5-0.14,0.75-0.21c0.45-0.12,0.91-0.21,1.37-0.29
			c0.26-0.04,0.51-0.09,0.77-0.12c0.5-0.06,1.01-0.09,1.52-0.11c0.17-0.01,0.33-0.04,0.5-0.04c0.06,0,0.13,0.01,0.19,0.01
			c0.18,0,0.35,0.02,0.53,0.02c0.42,0.02,0.85,0.05,1.28,0.1c0.21,0.02,0.41,0.05,0.62,0.09c0.42,0.07,0.84,0.15,1.26,0.25
			c0.18,0.04,0.37,0.08,0.55,0.13c0.59,0.16,1.18,0.35,1.76,0.58c0.97,0.39,1.98,0.81,3,1.24c1.53,0.65,3.08,1.32,4.58,1.99
			c3.5,1.55,6.69,3.04,8.55,3.92c1.06,0.5,1.69,0.8,1.69,0.8c2.89,1.42,5.56,2.73,8.26,4.14c1.81,0.95,3.67,1.98,5.59,3.08
			c-0.12-0.81-0.21-1.64-0.33-2.45c-0.41-2.67-1.49-6.36-1.62-6.81c-3.44-11.97-16.46-17.1-16.46-17.1
			c-4.19-1.86-13.2-4.31-13.2-4.31c-15.52-3.93-31.76-6.07-48.49-6.12l-1.15,0c0,0-25.41-0.18-49.11,6.07
			c-8.72,2.3-12.61,4.24-12.61,4.24c-6.87,3.11-12.4,7.97-15.33,14.79c0.28-0.17,0.55-0.33,0.83-0.49c0.63-0.35,1.26-0.69,1.91-1.01
			c0.23-0.11,0.45-0.24,0.68-0.34c0.88-0.41,1.77-0.79,2.67-1.14c0.21-0.08,0.42-0.14,0.63-0.22c0.71-0.26,1.43-0.5,2.15-0.71
			c0.32-0.09,0.65-0.18,0.98-0.26c0.64-0.17,1.28-0.32,1.93-0.45c0.35-0.07,0.69-0.14,1.04-0.2c0.69-0.12,1.38-0.21,2.07-0.29
			c0.3-0.03,0.59-0.08,0.89-0.1c0.98-0.08,1.96-0.14,2.95-0.14c0.02,0,0.03,0,0.05,0c0.08,0,0.17,0.01,0.25,0.01
			c0.91,0.01,1.83,0.06,2.75,0.14c0.31,0.03,0.61,0.07,0.92,0.1c0.74,0.09,1.49,0.2,2.23,0.34c0.3,0.06,0.6,0.11,0.91,0.17
			c1.02,0.22,2.05,0.47,3.07,0.78c0,0,0,0,0,0c9.65,2.96,15.81,8.47,18.88,15.55c3.07,7.07,3.03,15.7,0.27,24.91
			c-0.32,1.07-0.69,2.11-1.08,3.12c-0.13,0.33-0.28,0.64-0.41,0.96c-0.28,0.67-0.57,1.33-0.88,1.97c-0.18,0.36-0.37,0.72-0.56,1.07
			c-0.3,0.57-0.61,1.13-0.94,1.68c-0.21,0.35-0.43,0.7-0.66,1.04c-0.34,0.52-0.69,1.03-1.05,1.52c-0.24,0.32-0.47,0.65-0.72,0.96
			c-0.39,0.49-0.79,0.96-1.2,1.43c-0.25,0.28-0.49,0.57-0.74,0.84c-0.47,0.5-0.96,0.97-1.46,1.44c-0.21,0.2-0.42,0.41-0.64,0.61
			c-0.73,0.65-1.48,1.26-2.25,1.83c-0.11,0.08-0.22,0.14-0.32,0.22c-0.68,0.49-1.37,0.95-2.08,1.39c-0.28,0.17-0.58,0.32-0.86,0.49
			c-0.55,0.31-1.11,0.62-1.68,0.9c-0.34,0.17-0.68,0.32-1.03,0.47c-0.54,0.24-1.09,0.48-1.64,0.69c-0.36,0.14-0.73,0.27-1.1,0.4
			c-0.56,0.19-1.13,0.37-1.7,0.54c-0.37,0.11-0.75,0.22-1.12,0.31c-0.6,0.15-1.21,0.28-1.83,0.4c-0.36,0.07-0.71,0.15-1.08,0.21
			c-0.72,0.12-1.45,0.2-2.18,0.28c-0.27,0.03-0.53,0.07-0.8,0.09c-0.98,0.08-1.96,0.12-2.96,0.12c-0.03,0-0.06,0-0.08,0
			c-0.73,0-1.47-0.05-2.21-0.1c-0.38-0.02-0.75-0.02-1.14-0.05c-1.13-0.1-2.26-0.25-3.4-0.44c-4.69-0.81-9.05-3.07-12.81-6.27
			c-0.56-0.47-1.07-1-1.6-1.52c0,0.04,0,0.08,0,0.12c0,19.19,1.9,37.93,5.61,56.03c1.47,7.19,4.8,10.67,4.8,10.67
			c3.6,4.7,8.78,8.12,14.75,9.46c0.43,0.09,0.85,0.17,1.28,0.25c18.56,3.67,37.74,5.6,57.37,5.6c19.72,0,38.98-1.94,57.6-5.64
			c0.31-0.06,0.61-0.12,0.92-0.18c9.85-2.16,17.58-9.96,19.62-19.85c0.01-0.04,0.02-0.08,0.02-0.12c3.7-18.16,5.64-36.96,5.64-56.21
			C183.02,109.02,182.87,104.49,182.64,99.99z M75.29,112.05c0.01-0.16,0.01-0.31,0.03-0.47l0.03-0.32l0.03-0.32l1.25-13.72
			l1.25-13.72l0.14-1.48c0.07-0.48,0.16-0.96,0.28-1.42c0.35-1.38,0.89-2.68,1.61-3.86c1.43-2.37,3.53-4.3,6.04-5.51
			c1.25-0.61,2.61-1.03,4.04-1.25c0.67-0.1,1.36-0.15,2.06-0.16h0.18h13.82h0.18c0.74,0,1.46,0.08,2.17,0.2
			c0.06,0.01,0.13,0.01,0.2,0.02c4.17,0.73,7.72,3.27,9.81,6.78c0.69,1.17,1.23,2.45,1.56,3.8c0.14,0.58,0.25,1.17,0.32,1.78
			l0.07,0.77l2.28,25.11l0.23,2.51l0.1,1.1c0,0.05,0,0.11,0,0.16c0.01,0.18,0.01,0.36,0.01,0.54c0,6.19-3.94,11.45-9.45,13.42
			c-0.79,0.28-1.61,0.5-2.45,0.64c-0.76,0.13-1.53,0.19-2.32,0.2h-0.07H89.57H89.5c-0.62,0-1.24-0.04-1.84-0.12
			c-0.6-0.08-1.19-0.2-1.77-0.35c-1.53-0.4-2.95-1.05-4.23-1.9c-1.28-0.85-2.42-1.9-3.36-3.11c-0.94-1.21-1.7-2.57-2.22-4.05
			c-0.52-1.48-0.8-3.06-0.8-4.72C75.27,112.41,75.28,112.23,75.29,112.05z M142.95,146.49c-21.55,20.08-66.64,20.05-87.71-0.03
			c-1.45-1.4-1.52-3.74-0.1-5.19c1.38-1.47,3.74-1.54,5.19-0.13c18.24,17.44,58.89,17.42,77.64-0.01c1.5-1.4,3.81-1.31,5.21,0.18
			C144.54,142.78,144.47,145.1,142.95,146.49z"/>
	</g>
	<path d="M180.06,79.48L180.06,79.48l-0.14-0.07l-0.25-0.12l-0.24-0.14c-5.65-3.38-10.11-5.61-16.26-8.63
		c-0.05-0.03-9.91-4.76-17.38-7.75c-1.2-0.48-2.48-0.73-3.78-0.73c-1.88,0-3.71,0.52-5.18,1.48l-0.19,0.12
		c-0.54,0.39-3.07,2.42-2.99,6.85c0.11,5.85,0.38,11.94,0.87,19.17c0.7,10.42,1.64,17.49,1.64,17.56l0.03,0.19l0.01,0.19
		c0.01,0.13,0.55,5.1,4.48,6.92c0.88,0.41,2.05,0.62,3.38,0.62c2.66,0,5.26-0.86,6.64-1.71l0.22-0.13l0.23-0.12
		c0.05-0.03,5.57-2.87,14.18-8.68c3.53-2.38,6.69-4.74,10.03-7.23c1.85-1.38,3.71-2.77,5.67-4.18c0.43-0.3,0.77-0.66,1.11-1.01
		c-0.32-4.03-0.7-8.04-1.18-12.03c-0.16-0.11-0.3-0.24-0.48-0.34C180.35,79.64,180.21,79.56,180.06,79.48z M154.24,100.15
		c-6.64,0-12.02-5.38-12.02-12.02c0-6.64,5.38-12.02,12.02-12.02c6.64,0,12.02,5.38,12.02,12.02
		C166.26,94.77,160.88,100.15,154.24,100.15z"/>
	<path d="M87.54,120.1c0.64,0.17,1.3,0.26,1.97,0.26h19.18c0.47,0,0.9-0.04,1.33-0.11c3.75-0.62,6.48-3.85,6.48-7.66l-0.01-0.28
		l0-0.05l-0.08-0.89l-2.51-27.62l-0.06-0.68c-0.04-0.31-0.09-0.61-0.17-0.89c-0.74-2.97-3.17-5.23-6.19-5.76
		c-0.43-0.07-0.86-0.11-1.28-0.12h-0.16H92.22h-0.18c-0.34,0-0.72,0.03-1.09,0.09c-3.05,0.46-5.6,2.78-6.36,5.78
		c-0.05,0.21-0.1,0.42-0.13,0.63l-0.12,1.28l-2.51,27.44l-0.05,0.55l-0.01,0.21l-0.01,0.31C81.77,116.12,84.14,119.2,87.54,120.1z"
		/>
	<path d="M30.92,114.85c1.92,0.33,3.85,0.5,5.73,0.5c12.96,0,22.98-7.61,26.79-20.35c2.85-9.52,4.71-26.38-14.84-32.38
		c-2.72-0.84-5.51-1.26-8.28-1.26c-7.84,0-15.64,3.42-21.61,9.13c-1.82,10.81-2.79,21.85-3.13,33.06
		C19.56,109.63,25.15,113.85,30.92,114.85z M40.72,76.11c6.64,0,12.02,5.38,12.02,12.02c0,6.64-5.38,12.02-12.02,12.02
		S28.7,94.77,28.7,88.13C28.7,81.49,34.08,76.11,40.72,76.11z"/>
</g>
</svg>
