<?xml version="1.0" encoding="utf-8"?>
<!-- Generator: Adobe Illustrator 25.4.1, SVG Export Plug-In . SVG Version: 6.00 Build 0)  -->
<svg version="1.1" id="레이어_1" xmlns="http://www.w3.org/2000/svg" xmlns:xlink="http://www.w3.org/1999/xlink" x="0px"
	 y="0px" viewBox="0 0 198.43 198.43" style="enable-background:new 0 0 198.43 198.43;" xml:space="preserve">
<g>
	<path d="M193.3,138.38c-1.77-5.9-4.04-11.58-6.6-17.18c-3.39-7.4-7.85-14.06-13.19-20.17c-0.37-0.42-0.85-0.79-1.04-1.49
		c0.27,0.06,0.39,0.1,0.51,0.12c1.76,0.31,3.29,1.44,5.14,1.46c1.03,0.01,1.34-0.54,1.18-1.42c-0.18-1.01-0.65-1.89-1.31-2.68
		c-1.96-2.36-4.58-3.39-7.51-3.86c-0.59-0.09-1.31,0.01-1.66-0.6c-0.62-1.09-1.15-2.24-1.73-3.36c-0.28-0.54-0.27-0.92,0.47-0.98
		c1.17-0.09,2.34-0.24,3.51-0.28c1.27-0.05,2.54-0.01,3.81,0.01c0.73,0.01,1.48-0.08,1.84-0.76c0.4-0.75-0.19-1.34-0.62-1.87
		c-1.31-1.59-3.1-2.35-5.05-2.83c-2.18-0.53-4.33-0.18-6.47,0.23c-0.67,0.13-1.08,0.02-1.43-0.7c-0.77-1.6-1.74-3.1-2.57-4.67
		c-2.62-4.94-6.42-8.89-10.36-12.75c-2.94-2.88-6.08-5.52-9.38-7.97c-0.45-0.33-0.6-0.52-0.18-0.98c1.06-1.17,1.76-2.58,2.57-3.92
		c3.58-5.94,5.86-12.3,6.65-19.23c0.54-4.74,0.36-9.43-0.38-14.11c-0.59-3.75-1.56-7.39-3.22-10.83c-2.68-5.55-8.42-5.72-12.03-3
		c-1.32,1-2.49,2.17-3.56,3.46c-5.34,6.43-9.55,13.51-12.24,21.44c-2.04,6.02-2.8,12.28-3.32,18.58c-0.06,0.76-0.07,1-1.02,0.83
		c-2.78-0.49-5.59-0.98-8.4-1.09c-4.86-0.18-9.73-0.11-14.6-0.08c-1.91,0.01-3.82,0.29-5.73,0.48c-2.12,0.21-4.19,0.72-6.32,0.91
		c-0.6,0.05-0.76-0.09-0.79-0.66c-0.07-1.39-0.19-2.79-0.27-4.18c-0.18-3.04-0.6-6.07-1.24-9.03c-1.44-6.65-3.91-12.9-7.39-18.77
		c-2.45-4.13-5.08-8.12-8.61-11.43c-2.68-2.52-7.34-2.99-10.09,0.4c-1.62,1.99-2.5,4.32-3.15,6.7c-2.09,7.57-2.56,15.25-1.41,23.04
		c1.09,7.43,4.03,14.11,8.09,20.34c0.54,0.83,0.34,1.16-0.28,1.64c-3.76,2.94-7.16,6.27-10.46,9.7c-4.28,4.45-7.38,9.68-10.1,15.17
		c-0.18,0.36-0.14,0.86-0.84,0.7c-1.18-0.28-2.38-0.51-3.58-0.66c-3.43-0.42-6.73-0.1-9.56,2.14c-0.79,0.63-1.72,1.4-1.32,2.5
		c0.38,1.05,1.55,0.95,2.52,0.93c2.92-0.04,5.84-0.08,8.74,0.53c0.82,0.18,0.8,0.41,0.49,0.99c-0.39,0.73-0.84,1.45-1.12,2.23
		c-0.32,0.88-0.86,1.09-1.75,1.14c-3.22,0.19-6.34,0.82-8.96,2.88c-1.33,1.05-2.42,2.29-2.6,4.09c-0.09,0.88,0.32,1.29,1.2,1.33
		c0.82,0.03,1.54-0.27,2.27-0.55c1.95-0.75,3.97-1.19,6.06-1.52c-0.01,0.68-0.3,1.11-0.62,1.52c-1.11,1.41-2.27,2.77-3.32,4.21
		c-4.71,6.49-8.52,13.47-11.46,20.94c-1.99,5.07-3.78,10.2-5.03,15.5c-0.57,2.41-0.78,4.88-1.08,7.35
		c-0.35,2.87-0.14,5.67,0.22,8.48c0.37,2.93,1.19,5.78,2.06,8.59c1.23,3.97,2.57,7.88,5.56,11c1.76,1.84,2.16,4.45,2.1,6.69
		c-0.1,3.77-0.69,7.55-0.99,11.33c-0.08,1,0.16,1.25,1.16,1.24c5.96-0.05,11.93-0.02,17.89-0.02c1.45,0,1.61-0.22,1.35-1.7
		c-0.49-2.78-0.8-5.58-0.82-8.41c-0.03-5.75-0.11-11.51,0.81-17.23c0.54-3.37,0.93-6.77,1.77-10.08c1.3-5.12,3.26-10.02,5.18-14.93
		c2.34-5.95,4.98-11.76,8.42-17.17c3.36-5.29,7.9-9.45,12.96-13.09c2.89-2.08,5.84-4.06,9-5.69c4-2.06,7.85-4.5,12.32-5.52
		c4.82-1.09,9.63-2.18,14.61-2.19c1.31,0,2.61,0.23,3.9,0.25c2.36,0.04,4.68,0.41,6.98,0.76c5.21,0.8,10.13,2.52,14.85,4.86
		c5.18,2.57,10.17,5.47,14.83,8.9c3.06,2.25,5.97,4.72,8.46,7.59c3.36,3.88,5.86,8.34,8.16,12.92c3.35,6.68,5.98,13.64,8.44,20.68
		c1.39,3.98,1.85,8.15,2.54,12.28c0.7,4.18,0.97,8.38,1.15,12.6c0.09,2.17-0.01,4.35-0.18,6.53c-0.2,2.65-0.48,5.28-0.84,7.91
		c-0.1,0.72,0.08,0.72,0.58,0.72c6.23,0,12.45,0,18.68,0.01c0.52,0,0.8-0.1,0.81-0.71c0.04-2.45-0.17-4.88-0.44-7.31
		c-0.29-2.6-0.88-5.16-0.94-7.78c-0.02-0.81,0.22-1.46,0.86-1.95c3.34-2.56,5.4-6,6.82-9.89c1.54-4.22,2.99-8.51,3.35-13
		C195.48,149.34,194.92,143.81,193.3,138.38z M18.02,184.09c-0.42,1.41-1.18,1.62-2.25,0.62c-1.97-1.83-2.33-4.27-2.52-6.77
		c-0.05-0.26-0.17-0.52-0.13-0.77c0.1-0.72,0.16-1.46,0.93-1.88c0.76-0.41,1.43-0.21,2.09,0.2c0.96,0.59,1.42,1.5,1.57,2.58
		C17.98,180.07,18.62,182.05,18.02,184.09z M22.35,183.96c-1.28,0.34-1.86-0.97-2.42-1.85c-1.24-1.96-1.79-4.16-1.65-6.49
		c0.09-1.39,1.52-2.19,2.77-1.57c1.22,0.61,1.94,1.65,2.14,2.97c0.2,1.29,0.26,2.61,0.35,3.6C23.49,182.1,23.82,183.57,22.35,183.96
		z M63.62,94.06c-8.21,0.09-15.7-6.96-15.61-15.11c0.09-7.92,7-14.96,15.55-14.88c8.47-0.01,15.43,6.87,15.46,14.93
		C79.06,86.98,71.97,93.96,63.62,94.06z M103.92,83.98c-0.97,2.56-4.75,5.29-7.43,5.35c-2.75,0.07-6.8-3.28-7.2-5.96
		c-0.22-1.45,0.79-2.78,2.28-2.96c1.69-0.21,3.38-0.44,4.76-0.3c2.34-0.01,4.37-0.12,6.27,0.7
		C104.12,81.46,104.5,82.45,103.92,83.98z M132.07,94.01c-8.44,0.37-15.77-7.15-15.66-14.85c0.12-8.27,6.88-15.06,15.62-15.05
		c8.95,0.01,15.58,7.07,15.61,14.98C147.68,87.14,140.52,94.25,132.07,94.01z M174.22,184.78c-0.63-0.2-0.95-0.71-1.07-1.37
		c-0.41-2.29,0.04-4.52,0.43-6.75c0.05-0.28,0.28-0.54,0.47-0.78c0.7-0.87,1.44-1.73,2.72-1.41c1.04,0.26,1.5,1.21,1.43,3.28
		c-0.49,1.89-0.7,4.41-2.53,6.33C175.28,184.5,174.87,184.98,174.22,184.78z M183.24,178.26c-0.24,2.58-0.63,5.12-2.57,7.09
		c-1.14,1.15-2.21,0.87-2.48-0.73c-0.43-2.59,0.06-5.14,1.01-7.55c0.37-0.92,1.3-1.76,2.53-1.4
		C182.97,176.03,183.38,177.01,183.24,178.26z"/>
	<path d="M113.99,122.47c1.08-1.01,1.21-2.34,0.85-3.75c-0.38-1.48-1.19-2.73-2.2-3.83c-2.85-3.11-6.27-5.43-10.15-7.06
		c-2.7-1.14-5.44-1.15-8.17-0.06c-4.08,1.63-7.64,4.05-10.62,7.29c-1.01,1.1-1.81,2.37-2.16,3.86c-0.57,2.44,0.81,4.26,3.3,4.28
		c1.36,0.1,2.55-0.53,3.68-1.3c2.28-1.55,4.49-3.19,6.8-4.7c2.03-1.32,3.94-1.45,5.94-0.02c1.78,1.27,3.59,2.5,5.39,3.75
		c1.11,0.77,2.14,1.7,3.48,2.06C111.49,123.35,112.89,123.51,113.99,122.47z"/>
	<path d="M84.84,131.1c-3.06-3.61-6.84-6.23-11.25-7.92c-2.33-0.89-4.7-0.92-7.06-0.07c-4.42,1.58-8.18,4.15-11.31,7.62
		c-1.06,1.18-1.89,2.52-2.1,4.15c-0.3,2.38,1.07,3.91,3.45,3.87c1.48-0.02,2.69-0.71,3.85-1.51c2.34-1.61,4.61-3.33,7.04-4.81
		c1.74-1.05,3.28-1.06,5,0.02c2.38,1.49,4.62,3.17,6.91,4.78c1.2,0.84,2.46,1.51,3.25,1.52c3.13-0.01,4.59-2.02,3.91-4.43
		C86.2,133.13,85.63,132.03,84.84,131.1z"/>
	<path d="M131.73,123.05c-2.59-1.04-5.22-0.96-7.8,0.05c-4.1,1.6-7.65,4.03-10.62,7.28c-0.86,0.94-1.61,1.98-2,3.21
		c-0.46,1.44-0.48,2.91,0.59,4.08c1.03,1.12,2.46,1,3.82,0.72c1.09-0.22,1.99-0.88,2.89-1.5c2.37-1.64,4.66-3.4,7.18-4.84
		c1.56-0.89,2.94-0.77,4.43,0.12c2.34,1.38,4.51,3.01,6.71,4.6c0.93,0.67,1.88,1.3,2.99,1.61c2.78,0.8,4.62-0.52,4.62-2.99
		c0.06-1.71-0.58-2.92-1.41-4C140.15,127.51,136.24,124.86,131.73,123.05z"/>
	<path d="M128.05,70.79c-4.26,0-7.44,3.08-7.55,7.09c-0.12,4.39,4.13,7.65,7.5,7.18c4.13,0.38,7.7-3.38,7.63-7.08
		C135.55,73.92,132.33,70.79,128.05,70.79z"/>
	<path d="M67.1,70.92c-4.14-0.01-7.52,3.21-7.53,7.16c-0.01,4.1,3.25,7.27,7.48,7.28c4.2,0.01,7.5-3.1,7.53-7.1
		C74.61,74.18,71.29,70.93,67.1,70.92z"/>
</g>
</svg>
