<?xml version="1.0" encoding="utf-8"?>
<!-- Generator: Adobe Illustrator 25.4.1, SVG Export Plug-In . SVG Version: 6.00 Build 0)  -->
<svg version="1.1" id="레이어_1" xmlns="http://www.w3.org/2000/svg" xmlns:xlink="http://www.w3.org/1999/xlink" x="0px"
	 y="0px" viewBox="0 0 198.43 198.43" style="enable-background:new 0 0 198.43 198.43;" xml:space="preserve">
<g>
	<path d="M52.57,195.43c0-7.61,0-15.21,0-23.05c-15.6,0-31.03,0-46.69,0c-0.05-0.97-0.11-1.71-0.11-2.46
		c-0.01-43.37-0.01-86.73,0.02-130.1c0-1.25,0.22-2.56,0.61-3.75C9.84,25.61,13.37,15.17,16.8,4.69c0.45-1.38,1.02-1.86,2.52-1.86
		c57.13,0.04,114.26,0.04,171.4,0.04c0.56,0,1.12,0,1.92,0c0,0.91,0,1.66,0,2.42c0,37.37-0.01,74.75,0.03,112.12
		c0,1.56-0.46,2.64-1.56,3.73c-16.58,16.51-33.12,33.05-49.63,49.63c-1.1,1.1-2.17,1.56-3.73,1.55
		c-10.06-0.07-20.11,0.01-30.17-0.08c-1.93-0.02-3.3,0.49-4.67,1.89c-6.63,6.78-13.37,13.47-20.12,20.13
		c-0.64,0.63-1.65,1.26-2.49,1.27c-8.99,0.09-17.97,0.05-26.96,0.04C53.13,195.58,52.93,195.5,52.57,195.43z M34.78,20.21
		c0,41.02,0,81.91,0,123.08c13.69,0,27.25,0,41.02,0c0,7.84,0,15.41,0,23.33c0.63-0.6,0.99-0.93,1.33-1.27
		c6.92-6.9,13.85-13.78,20.73-20.73c0.98-0.99,1.96-1.39,3.35-1.39c14.34,0.05,28.67,0.06,43.01-0.03c1.05-0.01,2.36-0.55,3.11-1.29
		c8.94-8.81,17.77-17.73,26.69-26.57c1-0.99,1.36-1.98,1.36-3.36c-0.03-29.88-0.03-59.77-0.03-89.65c0-0.69,0-1.38,0-2.14
		C128.38,20.21,81.63,20.21,34.78,20.21z"/>
	<path d="M99.12,55.67c0,17.39,0,34.63,0,52.02c-5.77,0-11.49,0-17.33,0c0-17.28,0-34.58,0-52.02
		C87.49,55.67,93.21,55.67,99.12,55.67z"/>
	<path d="M145.76,107.76c-5.71,0-11.31,0-17.02,0c0-17.37,0-34.66,0-52.09c5.61,0,11.26,0,17.02,0
		C145.76,72.96,145.76,90.25,145.76,107.76z"/>
</g>
</svg>
