<?xml version="1.0" encoding="utf-8"?>
<!-- Generator: Adobe Illustrator 27.5.0, SVG Export Plug-In . SVG Version: 6.00 Build 0)  -->
<svg version="1.1" id="레이어_1" xmlns="http://www.w3.org/2000/svg" xmlns:xlink="http://www.w3.org/1999/xlink" x="0px"
	 y="0px" viewBox="0 0 198.4 198.4" style="enable-background:new 0 0 198.4 198.4;" xml:space="preserve">
<g>
	<path d="M198.4,67.8c0,20.9,0,41.9,0,62.8c-0.3,2.1-0.6,4.2-1.1,6.3c-4.6,19.6-20.7,32.4-40.9,32.4c-38.2,0-76.5,0-114.7,0
		c-3.1,0-6.4-0.3-9.4-1C13,163.8,0.2,147.7,0.1,127.8C0,108.7,0,89.7,0.1,70.6c0-7.4,1.6-14.4,5.4-20.7C13.7,36.2,26,29.2,42,29.1
		c38.1-0.1,76.2,0,114.3,0c1,0,1.9,0,2.9,0.1c17.8,0.8,33.2,13.3,37.6,30.5C197.6,62.4,197.9,65.1,198.4,67.8z M71.9,99.3
		c0,8.4,0,16.8,0,25.2c0,3.6,1.3,4.4,4.6,2.8c9.2-4.4,18.4-8.8,27.6-13.2c8.1-3.9,16.3-7.7,24.4-11.7c0.9-0.4,1.9-1.6,2-2.5
		c0.1-0.7-1.2-1.6-1.9-2.4c-0.2-0.2-0.4-0.2-0.7-0.4c-17.2-8.7-34.3-17.4-51.5-26.1c-3.3-1.6-4.6-0.9-4.6,2.7
		C71.9,82.4,71.9,90.9,71.9,99.3z"/>
</g>
</svg>
